<mxfile host="app.diagrams.net" modified="2022-10-10T21:44:08.082Z" agent="5.0 (Windows NT 10.0; Win64; x64) AppleWebKit/537.36 (KHTML, like Gecko) Chrome/104.0.5112.126 Safari/537.36" etag="_0-CNxqhXgza0QJZ--uv" version="20.2.7" type="github">
  <diagram id="R2lEEEUBdFMjLlhIrx00" name="Page-1">
    <mxGraphModel dx="747" dy="702" grid="1" gridSize="10" guides="1" tooltips="1" connect="1" arrows="1" fold="1" page="1" pageScale="1" pageWidth="850" pageHeight="1100" math="0" shadow="0" extFonts="Permanent Marker^https://fonts.googleapis.com/css?family=Permanent+Marker">
      <root>
        <mxCell id="0" />
        <mxCell id="1" parent="0" />
        <mxCell id="v1Up5jdKYnKMoi3Di6oB-8" style="edgeStyle=orthogonalEdgeStyle;rounded=0;orthogonalLoop=1;jettySize=auto;html=1;entryX=0;entryY=0.5;entryDx=0;entryDy=0;" edge="1" parent="1" source="v1Up5jdKYnKMoi3Di6oB-1" target="v1Up5jdKYnKMoi3Di6oB-2">
          <mxGeometry relative="1" as="geometry" />
        </mxCell>
        <mxCell id="v1Up5jdKYnKMoi3Di6oB-1" value="Sistema &lt;br&gt;&quot;ExplotaciÃ³n de Datos&quot;" style="ellipse;whiteSpace=wrap;html=1;" vertex="1" parent="1">
          <mxGeometry x="280" y="200" width="160" height="160" as="geometry" />
        </mxCell>
        <mxCell id="v1Up5jdKYnKMoi3Di6oB-9" style="edgeStyle=orthogonalEdgeStyle;rounded=0;orthogonalLoop=1;jettySize=auto;html=1;entryX=0.806;entryY=0.919;entryDx=0;entryDy=0;entryPerimeter=0;exitX=0.5;exitY=1;exitDx=0;exitDy=0;" edge="1" parent="1" source="v1Up5jdKYnKMoi3Di6oB-2" target="v1Up5jdKYnKMoi3Di6oB-1">
          <mxGeometry relative="1" as="geometry">
            <Array as="points">
              <mxPoint x="620" y="347" />
            </Array>
          </mxGeometry>
        </mxCell>
        <mxCell id="v1Up5jdKYnKMoi3Di6oB-2" value="Cliente" style="rounded=0;whiteSpace=wrap;html=1;" vertex="1" parent="1">
          <mxGeometry x="560" y="240" width="120" height="60" as="geometry" />
        </mxCell>
        <mxCell id="v1Up5jdKYnKMoi3Di6oB-7" style="edgeStyle=orthogonalEdgeStyle;rounded=0;orthogonalLoop=1;jettySize=auto;html=1;entryX=-0.006;entryY=0.438;entryDx=0;entryDy=0;entryPerimeter=0;" edge="1" parent="1" source="v1Up5jdKYnKMoi3Di6oB-3" target="v1Up5jdKYnKMoi3Di6oB-1">
          <mxGeometry relative="1" as="geometry" />
        </mxCell>
        <mxCell id="v1Up5jdKYnKMoi3Di6oB-3" value="Base de Datos" style="rounded=0;whiteSpace=wrap;html=1;" vertex="1" parent="1">
          <mxGeometry x="40" y="240" width="120" height="60" as="geometry" />
        </mxCell>
        <mxCell id="v1Up5jdKYnKMoi3Di6oB-6" value="&lt;h1&gt;&lt;u&gt;Diagrama de Contexto&lt;/u&gt;&lt;/h1&gt;" style="text;html=1;align=center;verticalAlign=middle;resizable=0;points=[];autosize=1;strokeColor=none;fillColor=none;" vertex="1" parent="1">
          <mxGeometry x="220" y="40" width="280" height="70" as="geometry" />
        </mxCell>
      </root>
    </mxGraphModel>
  </diagram>
</mxfile>
